<svg xmlns="http://www.w3.org/2000/svg" viewBox="0 0 263.61 263.61"><g id="ffcf2f5e-3f02-4a48-8e65-a02528c496b0" data-name="图层 2"><g id="a9f844e8-5181-42af-928c-4c868e7132ff" data-name="One-Press"><circle cx="131.8" cy="131.8" r="126.8" style="fill:#231815"/><path d="M131.8,10a121.8,121.8,0,0,1,86.13,207.93A121.8,121.8,0,1,1,45.68,45.68,121,121,0,0,1,131.8,10m0-10A131.81,131.81,0,1,0,263.61,131.8,131.8,131.8,0,0,0,131.8,0Z" style="fill:#fff"/><path d="M56.08,166.92a42,42,0,0,0,43.2,43,45.1,45.1,0,0,0,31.12-13.52,45.76,45.76,0,0,0,13.44-31.2l.48-23.36,23.44-.56A44.86,44.86,0,0,0,199,127.88a45.64,45.64,0,0,0,13.52-31.2,41.85,41.85,0,0,0-43-43,45.29,45.29,0,0,0-31.2,13.52,45.76,45.76,0,0,0-13.44,31.2l-1.36,67.12a24.62,24.62,0,0,1-23.92,23.84,21.7,21.7,0,0,1-16.16-6.4,22.33,22.33,0,0,1-6.48-16.24,24.62,24.62,0,0,1,23.92-23.84h.08l10.24-.48.32-20.64-10.64.56A45,45,0,0,0,69.68,135.8a44.36,44.36,0,0,0-13.6,31.12Zm88.72-45.68.48-23.2A24.62,24.62,0,0,1,169.2,74.2a21.7,21.7,0,0,1,16.16,6.4,22.33,22.33,0,0,1,6.48,16.24,24.62,24.62,0,0,1-23.92,23.84Z" style="fill:#fff"/></g></g></svg>